# xmcd CD database file
#
# Track frame offsets:
#	150
#	17348
#	28175
#	41215
#	53607
#	62300
#	82765
#	106227
#	122048
#	162061
#	168405
#	182039
#	202234
#
# Disc length: 3273 seconds
#
# Revision: 0
# Processed by: cddbd v1.5PL3 Copyright (c) Steve Scherf et al.
# Submitted via: CDex 1.51
#
DISCID=9d0cc70d
DTITLE=Black Forest/Black Sea - Forcefields And Constellations
DYEAR=2004
DGENRE=Country
TTITLE0=Orion
TTITLE1=Nylon 2
TTITLE2=These Things
TTITLE3=Kyy Plays Perpetual Change
TTITLE4=I'm In Love...
TTITLE5=With A Dead Man I've Never Met
TTITLE6=Fish No Fish
TTITLE7=F Vs. Bf/Bs
TTITLE8=Hung Far Lowish
TTITLE9=Nylon 1
TTITLE10=The Last Night In Troy
TTITLE11=Tangent Universe
TTITLE12=Jamestown
EXTD=YEAR: 2004
EXTT0=
EXTT1=
EXTT2=
EXTT3=
EXTT4=
EXTT5=
EXTT6=
EXTT7=
EXTT8=
EXTT9=
EXTT10=
EXTT11=
EXTT12=
PLAYORDER=
